<?xml version="1.0" encoding="iso-8859-1"?>
<!-- Uploaded to: SVG Repo, www.svgrepo.com, Generator: SVG Repo Mixer Tools -->
<svg fill="#000000" height="800px" width="800px" version="1.1" id="Layer_1" xmlns="http://www.w3.org/2000/svg" xmlns:xlink="http://www.w3.org/1999/xlink" 
	 viewBox="0 0 512 512" xml:space="preserve">
<g>
	<g>
		<path d="M511.936,250.128c-1.298-57.879-22.545-114.227-59.83-158.66C408.154,39.088,346.436,6.959,278.319,1
			c-68.12-5.96-134.476,14.962-186.855,58.916c-52.38,43.952-84.509,105.67-90.468,173.786
			c-5.96,68.117,14.963,134.477,58.916,186.855l31.799-26.682C54.886,349.988,37.356,294.39,42.35,237.319
			c4.994-57.071,31.911-108.78,75.797-145.606c43.886-36.825,99.482-54.363,156.556-49.361
			c57.071,4.992,108.78,31.911,145.605,75.797c61.961,73.843,67.147,178.148,13.951,257.244L403.69,347.14l3.527,89.071
			l89.061-3.492l-31.232-28.867C496.545,359.331,513.165,305.001,511.936,250.128z"/>
	</g>
</g>
<g>
	<g>
		<path d="M401.299,254.823c-0.001-39.527-15.687-76.399-44.171-103.82c-28.471-27.411-65.938-41.682-105.527-40.175
			c-37.302,1.416-72.187,17.133-98.225,44.251c-26.023,27.104-40.33,62.591-40.284,99.926c0.047,37.735,14.579,73.395,40.92,100.407
			c9.115,9.347,15.431,20.644,18.54,32.84h-18.344v20.756c0,56.787,46.199,102.988,102.987,102.988s102.988-46.201,102.988-102.988
			v-20.756h-18.341c3.112-12.199,9.437-23.502,18.56-32.865C386.776,328.327,401.299,292.614,401.299,254.823z M257.194,470.487
			c-26.617,0-49.338-17.004-57.871-40.721h115.742C306.533,453.482,283.811,470.487,257.194,470.487z M330.673,326.418
			c-16.791,17.229-27.55,38.727-31.186,61.837h-22.723V283.686h-41.511v104.568h-20.35c-3.634-23.114-14.386-44.605-31.171-61.82
			c-18.751-19.231-29.097-44.616-29.13-71.48c-0.066-54.532,44.153-100.579,98.574-102.645c28.219-1.072,54.893,9.084,75.162,28.599
			c20.28,19.524,31.449,45.774,31.449,73.916C359.786,281.728,349.447,307.154,330.673,326.418z"/>
	</g>
</g>
</svg>