<?xml version='1.0' encoding='UTF-8' standalone='no'?>
<svg height="209.973mm" width="296.926mm" xmlns="http://www.w3.org/2000/svg" viewBox="0 0 3507 2480" version="1.2" xmlns:xlink="http://www.w3.org/1999/xlink" baseProfile="tiny">
 <title>Qt SVG Document</title>
 <desc>Generated with Qt</desc>
 <defs/>
 <g stroke="black" fill="none" stroke-width="1" stroke-linecap="square" stroke-linejoin="bevel" fill-rule="evenodd">
  <g stroke="#000000" stroke-opacity="1" fill="none" stroke-width="1" stroke-linecap="square" font-family="MS Shell Dlg 2" font-style="normal" stroke-linejoin="bevel" font-size="34.375" font-weight="400" transform="matrix(1,0,0,1,0,0)"/>
  <g stroke="#000000" stroke-opacity="1" fill="none" stroke-width="1" stroke-linecap="square" font-family="MS Shell Dlg 2" font-style="normal" stroke-linejoin="bevel" font-size="34.375" font-weight="400" transform="matrix(1,0,0,1,0,0)"/>
  <g stroke="#000000" stroke-opacity="1" fill="none" stroke-width="1" stroke-linecap="square" font-family="MS Shell Dlg 2" font-style="normal" stroke-linejoin="bevel" font-size="34.375" font-weight="400" transform="matrix(11.8081,0,0,11.8081,0,0)"/>
  <g stroke="#000000" stroke-opacity="1" fill="none" stroke-width="1" stroke-linecap="square" font-family="MS Shell Dlg 2" font-style="normal" stroke-linejoin="bevel" font-size="34.375" font-weight="400" transform="matrix(0.999751,0,0,0.999751,0,0)"/>
  <g stroke="none" fill="#ffffff" font-family="MS Shell Dlg 2" font-style="normal" font-size="34.375" fill-opacity="1" font-weight="400" transform="matrix(0.999751,0,0,0.999751,0,0)">
   <path d="M-2,-2 L3510,-2 L3510,2483 L-2,2483 L-2,-2" vector-effect="none" fill-rule="evenodd"/>
  </g>
  <g stroke="#000000" stroke-opacity="1" fill="none" stroke-width="1" stroke-linecap="square" font-family="MS Shell Dlg 2" font-style="normal" stroke-linejoin="bevel" font-size="34.375" font-weight="400" transform="matrix(0.999751,0,0,0.999751,0,0)"/>
  <g stroke="#000000" stroke-opacity="1" fill="none" stroke-width="1" stroke-linecap="square" font-family="MS Shell Dlg 2" font-style="normal" stroke-linejoin="bevel" font-size="34.375" font-weight="400" transform="matrix(11.8081,0,0,11.8081,0,0)"/>
  <g stroke="#000000" stroke-opacity="1" fill="none" stroke-width="1" stroke-linecap="square" font-family="MS Shell Dlg 2" font-style="normal" stroke-linejoin="bevel" font-size="34.375" font-weight="400" transform="matrix(11.8081,0,0,11.8081,0,0)"/>
  <g stroke="#000000" stroke-opacity="1" fill="none" stroke-width="1" stroke-linecap="square" font-family="MS Shell Dlg 2" font-style="normal" stroke-linejoin="bevel" font-size="34.375" font-weight="400" transform="matrix(11.8081,0,0,11.8081,0,0)"/>
  <g stroke="#000000" stroke-opacity="1" fill="none" stroke-width="1" stroke-linecap="square" font-family="MS Shell Dlg 2" font-style="normal" stroke-linejoin="bevel" font-size="34.375" font-weight="400" transform="matrix(11.8081,0,0,11.8081,0,0)"/>
  <g stroke="#000000" stroke-opacity="1" fill="none" stroke-width="1" stroke-linecap="square" font-family="MS Shell Dlg 2" font-style="normal" stroke-linejoin="bevel" font-size="34.375" font-weight="400" transform="matrix(11.8081,0,0,11.8081,0,0)"/>
  <g stroke="none" fill="#ffffff" font-family="MS Shell Dlg 2" font-style="normal" font-size="34.375" fill-opacity="1" font-weight="400" transform="matrix(11.8081,0,0,11.8081,0,0)">
   <path d="M0,0 L297,0 L297,210 L0,210 L0,0" vector-effect="none" fill-rule="evenodd"/>
  </g>
  <g stroke="#000000" stroke-opacity="1" fill="none" stroke-width="1" stroke-linecap="square" font-family="MS Shell Dlg 2" font-style="normal" stroke-linejoin="bevel" font-size="34.375" font-weight="400" transform="matrix(11.8081,0,0,11.8081,0,0)"/>
  <g stroke="#000000" stroke-opacity="1" fill="none" stroke-width="1" stroke-linecap="square" font-family="MS Shell Dlg 2" font-style="normal" stroke-linejoin="bevel" font-size="34.375" font-weight="400" transform="matrix(11.8081,0,0,11.8081,0,0)"/>
  <g stroke="none" fill="#000000" font-family="MS Shell Dlg 2" font-style="normal" font-size="34.375" fill-opacity="0" font-weight="400" transform="matrix(0.999751,0,0,0.999751,0,0)">
   <rect height="2480" width="3508" y="0" x="0"/>
  </g>
  <g stroke="#000000" stroke-opacity="1" fill="none" stroke-width="1" stroke-linecap="square" font-family="MS Shell Dlg 2" font-style="normal" stroke-linejoin="bevel" font-size="34.375" font-weight="400" transform="matrix(0.999751,0,0,0.999751,0,0)"/>
  <g stroke="#232323" stroke-opacity="1" fill="#b4b4b4" stroke-width="3.07087" stroke-linecap="square" font-family="MS Shell Dlg 2" font-style="normal" stroke-linejoin="bevel" font-size="34.375" fill-opacity="1" font-weight="400" transform="matrix(0.999751,0,0,0.999751,0,0)">
   <path d="M-350.8,2728 L-350.8,1957.88 L1806.56,2705.06 L1799.33,2728 L-350.8,2728" vector-effect="none" fill-rule="evenodd"/>
  </g>
  <g stroke="none" fill="#e1e1e1" font-family="MS Shell Dlg 2" font-style="normal" font-size="34.375" fill-opacity="1" font-weight="400" transform="matrix(0.999751,0,0,0.999751,0,0)">
   <path d="M-350.8,1042.96 L1464.34,1670.81 L1806.56,2705.06 L-350.8,1957.88 L-350.8,1042.96" vector-effect="none" fill-rule="evenodd"/>
  </g>
  <g stroke="none" fill="#ffffff" font-family="MS Shell Dlg 2" font-style="normal" font-size="34.375" fill-opacity="1" font-weight="400" transform="matrix(0.999751,0,0,0.999751,0,0)">
   <path d="M-350.8,2728 L-350.8,-248 L3858.8,-248 L3858.8,2728 L-350.8,2728 M-350.8,2728 L1815.28,2728 L1806.56,2705.06 L1464.34,1670.81 L-350.8,1042.96 L-350.8,2728" vector-effect="none" fill-rule="evenodd"/>
  </g>
  <g stroke="#000000" stroke-opacity="1" fill="none" stroke-width="1" stroke-linecap="square" font-family="MS Shell Dlg 2" font-style="normal" stroke-linejoin="bevel" font-size="34.375" font-weight="400" transform="matrix(0.999751,0,0,0.999751,0,0)"/>
  <g stroke="#000000" stroke-opacity="1" fill="none" stroke-width="1.66667" stroke-linecap="square" font-family="MS Shell Dlg 2" font-style="normal" stroke-linejoin="bevel" font-size="34.375" font-weight="400" transform="matrix(0.999751,0,0,0.999751,0,0)">
   <path d="" vector-effect="none" fill-rule="evenodd"/>
   <path d="" vector-effect="none" fill-rule="evenodd"/>
   <path d="" vector-effect="none" fill-rule="evenodd"/>
   <path d="M2694.13,2728 L2651.13,2585.16 L2597.46,2410.38" vector-effect="none" fill-rule="evenodd"/>
   <path d="M2597.46,2410.38 L2575.81,2342.85 L2552.92,2275.71 L2528.77,2209.02 L2503.39,2142.8 L2476.79,2077.06 L2448.98,2011.81 L2419.97,1947.09 L2389.76,1882.94 L2358.35,1819.35 L2325.78,1756.34 L2292.03,1693.96 L2257.15,1632.21 L2221.12,1571.13 L2183.95,1510.71 L2145.68,1450.99 L2106.3,1391.99 L2065.83,1333.74 L2024.29,1276.25 L1981.7,1219.54 L1938.05,1163.62 L1893.37,1108.52 L1847.68,1054.26 L1800.99,1000.88 L1753.33,948.347" vector-effect="none" fill-rule="evenodd"/>
   <path d="M1753.33,948.347 L1703.13,895.113 L1651.9,842.868 L1599.65,791.612 L1546.44,741.401 L1492.23,692.235 L1437.08,644.154 L1381.01,597.137 L1324.03,551.223 L1266.16,506.43 L1207.43,462.778 L1147.87,420.286 L1087.48,378.954 L1026.3,338.82 L964.343,299.883 L901.66,262.163 L838.235,225.66 L774.108,190.411 L709.314,156.418 L643.856,123.698 L577.789,92.2518 L511.113,62.1176 L443.868,33.2763 L376.051,5.74678 L307.741,-20.4329 L238.917,-45.3007 L169.618,-68.7996" vector-effect="none" fill-rule="evenodd"/>
  </g>
  <g stroke="#000000" stroke-opacity="1" fill="none" stroke-width="1" stroke-linecap="square" font-family="MS Shell Dlg 2" font-style="normal" stroke-linejoin="bevel" font-size="34.375" font-weight="400" transform="matrix(0.999751,0,0,0.999751,0,0)"/>
  <g stroke="#000000" stroke-opacity="1" fill="none" stroke-width="1" stroke-linecap="square" font-family="MS Shell Dlg 2" font-style="normal" stroke-linejoin="bevel" font-size="34.375" font-weight="400" transform="matrix(0.999751,0,0,0.999751,0,0)"/>
  <g stroke="#232323" stroke-opacity="1" fill="#000000" stroke-width="4.16667" stroke-linecap="square" font-family="MS Shell Dlg 2" font-style="normal" stroke-linejoin="bevel" font-size="34.375" fill-opacity="0" font-weight="400" transform="matrix(0.999751,0,0,0.999751,0,0)">
   <path d="M-350.8,2728 L-350.8,-248 L3858.8,-248 L3858.8,2728 L-350.8,2728" vector-effect="none" fill-rule="evenodd"/>
  </g>
  <g stroke="#000000" stroke-opacity="1" fill="none" stroke-width="1" stroke-linecap="square" font-family="MS Shell Dlg 2" font-style="normal" stroke-linejoin="bevel" font-size="34.375" font-weight="400" transform="matrix(0.999751,0,0,0.999751,0,0)"/>
  <g stroke="#000000" stroke-opacity="1" fill="#91522d" stroke-width="3.125" stroke-linecap="square" font-family="MS Shell Dlg 2" font-style="normal" stroke-linejoin="bevel" font-size="34.375" fill-opacity="0" font-weight="400" transform="matrix(0.999751,0,0,0.999751,0,0)">
   <path d="M1815.28,2728 L1806.56,2705.06 L1464.34,1670.81 L3858.8,2440.76 L3858.8,2728 L1815.28,2728" vector-effect="none" fill-rule="evenodd"/>
   <path d="M1464.34,1670.81 L2233.94,-248 L3858.8,-248 L3858.8,2440.76 L1464.34,1670.81" vector-effect="none" fill-rule="evenodd"/>
   <path d="M-350.8,2728 L-350.8,1042.96 L1464.34,1670.81 L1806.56,2705.06 L1815.28,2728 L-350.8,2728" vector-effect="none" fill-rule="evenodd"/>
   <path d="M-350.8,-248 L2233.94,-248 L1464.34,1670.81 L-350.8,1042.96 L-350.8,-248" vector-effect="none" fill-rule="evenodd"/>
  </g>
  <g stroke="#000000" stroke-opacity="1" fill="none" stroke-width="1" stroke-linecap="square" font-family="MS Shell Dlg 2" font-style="normal" stroke-linejoin="bevel" font-size="34.375" font-weight="400" transform="matrix(0.999751,0,0,0.999751,0,0)"/>
  <g stroke="#000000" stroke-opacity="1" fill="none" stroke-width="1" stroke-linecap="square" font-family="MS Shell Dlg 2" font-style="normal" stroke-linejoin="bevel" font-size="34.375" font-weight="400" transform="matrix(0.999751,0,0,0.999751,0,0)"/>
  <g stroke="#000000" stroke-opacity="1" fill="none" stroke-width="1" stroke-linecap="square" font-family="MS Shell Dlg 2" font-style="normal" stroke-linejoin="bevel" font-size="34.375" font-weight="400" transform="matrix(0.999751,0,0,0.999751,0,0)"/>
  <g stroke="#ffbebe" stroke-opacity="1" fill="none" stroke-width="5.83333" stroke-linecap="square" font-family="MS Shell Dlg 2" font-style="normal" stroke-linejoin="bevel" font-size="34.375" font-weight="400" transform="matrix(0.999751,0,0,0.999751,0,0)">
   <path d="M1507.44,1213.97 L862.951,238.626 L550.62,-248" vector-effect="none" fill-rule="evenodd"/>
   <path d="" vector-effect="none" fill-rule="evenodd"/>
   <path d="M1477.31,1275.62 L1554.76,1319.37 L1621.53,1419.3" vector-effect="none" fill-rule="evenodd"/>
   <path d="M-350.8,559.275 L3858.8,1937.11" vector-effect="none" fill-rule="evenodd"/>
   <path d="M3858.8,1877.05 L-350.8,489.721" vector-effect="none" fill-rule="evenodd"/>
   <path d="M-350.8,427.263 L3858.8,1827.15" vector-effect="none" fill-rule="evenodd"/>
   <path d="M3858.8,1988.57 L-350.8,610.64" vector-effect="none" fill-rule="evenodd"/>
   <path d="M2036.54,2728 L1621.53,1419.3" vector-effect="none" fill-rule="evenodd"/>
   <path d="M-350.8,682.489 L1477.31,1275.62" vector-effect="none" fill-rule="evenodd"/>
   <path d="M1556.89,1301.44 L3858.8,2049.67" vector-effect="none" fill-rule="evenodd"/>
   <path d="M1556.89,1301.44 L1577.81,1314.73 L1593.02,1331.86 L1600.6,1352.75 L1621.53,1419.3" vector-effect="none" fill-rule="evenodd"/>
   <path d="M1507.44,1213.97 L1530.29,1246.29 L1583.51,1301.44 L1604.4,1335.66 L1615.83,1377.47 L1621.53,1419.3" vector-effect="none" fill-rule="evenodd"/>
   <path d="" vector-effect="none" fill-rule="evenodd"/>
   <path d="M1477.31,1275.62 L1556.89,1301.44" vector-effect="none" fill-rule="evenodd"/>
  </g>
  <g stroke="#000000" stroke-opacity="1" fill="none" stroke-width="1" stroke-linecap="square" font-family="MS Shell Dlg 2" font-style="normal" stroke-linejoin="bevel" font-size="34.375" font-weight="400" transform="matrix(0.999751,0,0,0.999751,0,0)"/>
  <g stroke="#dcdcdc" stroke-opacity="1" fill="none" stroke-width="5.83333" stroke-linecap="square" font-family="MS Shell Dlg 2" font-style="normal" stroke-linejoin="bevel" font-size="34.375" font-weight="400" transform="matrix(0.999751,0,0,0.999751,0,0)">
   <path d="M3858.8,1877.05 L-350.8,489.721" vector-effect="none" fill-rule="evenodd"/>
   <path d="M3858.8,1988.57 L-350.8,610.64" vector-effect="none" fill-rule="evenodd"/>
   <path d="M-350.8,682.489 L1477.31,1275.62" vector-effect="none" fill-rule="evenodd"/>
   <path d="M1556.89,1301.44 L3858.8,2049.67" vector-effect="none" fill-rule="evenodd"/>
  </g>
  <g stroke="#000000" stroke-opacity="1" fill="none" stroke-width="1" stroke-linecap="square" font-family="MS Shell Dlg 2" font-style="normal" stroke-linejoin="bevel" font-size="34.375" font-weight="400" transform="matrix(0.999751,0,0,0.999751,0,0)"/>
  <g stroke="#000000" stroke-opacity="1" fill="none" stroke-width="1" stroke-linecap="square" font-family="MS Shell Dlg 2" font-style="normal" stroke-linejoin="bevel" font-size="34.375" font-weight="400" transform="matrix(0.999751,0,0,0.999751,0,0)"/>
  <g stroke="#a80084" stroke-opacity="1" fill="none" stroke-width="1.66667" stroke-linecap="square" font-family="MS Shell Dlg 2" font-style="normal" stroke-linejoin="bevel" font-size="34.375" font-weight="400" transform="matrix(0.999751,0,0,0.999751,0,0)">
   <path d="M-350.8,559.275 L3858.8,1937.11" vector-effect="none" fill-rule="evenodd"/>
   <path d="M3858.8,1877.05 L-350.8,489.721" vector-effect="none" fill-rule="evenodd"/>
   <path d="M-350.8,427.263 L3858.8,1827.15" vector-effect="none" fill-rule="evenodd"/>
   <path d="M3858.8,1988.57 L-350.8,610.64" vector-effect="none" fill-rule="evenodd"/>
   <path d="M2036.54,2728 L1621.53,1419.3" vector-effect="none" fill-rule="evenodd"/>
   <path d="M-350.8,682.489 L1477.31,1275.62" vector-effect="none" fill-rule="evenodd"/>
   <path d="M1556.89,1301.44 L3858.8,2049.67" vector-effect="none" fill-rule="evenodd"/>
   <path d="M1556.89,1301.44 L1577.81,1314.73 L1593.02,1331.86 L1600.6,1352.75 L1621.53,1419.3" vector-effect="none" fill-rule="evenodd"/>
   <path d="M1507.44,1213.97 L1530.29,1246.29 L1583.51,1301.44 L1604.4,1335.66 L1615.83,1377.47 L1621.53,1419.3" vector-effect="none" fill-rule="evenodd"/>
   <path d="" vector-effect="none" fill-rule="evenodd"/>
   <path d="M1477.31,1275.62 L1556.89,1301.44" vector-effect="none" fill-rule="evenodd"/>
   <path d="M1477.31,1275.62 L1554.76,1319.37 L1621.53,1419.3" vector-effect="none" fill-rule="evenodd"/>
   <path d="M1507.44,1213.97 L862.951,238.626 L550.62,-248" vector-effect="none" fill-rule="evenodd"/>
   <path d="" vector-effect="none" fill-rule="evenodd"/>
  </g>
  <g stroke="#000000" stroke-opacity="1" fill="none" stroke-width="1" stroke-linecap="square" font-family="MS Shell Dlg 2" font-style="normal" stroke-linejoin="bevel" font-size="34.375" font-weight="400" transform="matrix(0.999751,0,0,0.999751,0,0)"/>
  <g stroke="#ff7e00" stroke-opacity="1" fill="none" stroke-width="0.833333" stroke-linecap="square" font-family="MS Shell Dlg 2" font-style="normal" stroke-linejoin="bevel" font-size="34.375" font-weight="400" transform="matrix(0.999751,0,0,0.999751,0,0)">
   <path d="" vector-effect="none" fill-rule="evenodd"/>
  </g>
  <g stroke="#000000" stroke-opacity="1" fill="none" stroke-width="1" stroke-linecap="square" font-family="MS Shell Dlg 2" font-style="normal" stroke-linejoin="bevel" font-size="34.375" font-weight="400" transform="matrix(0.999751,0,0,0.999751,0,0)"/>
  <g stroke="#000000" stroke-opacity="1" fill="none" stroke-width="1" stroke-linecap="square" font-family="MS Shell Dlg 2" font-style="normal" stroke-linejoin="bevel" font-size="34.375" font-weight="400" transform="matrix(0.999751,0,0,0.999751,0,0)"/>
  <g stroke="#000000" stroke-opacity="1" fill="none" stroke-width="1" stroke-linecap="square" font-family="MS Shell Dlg 2" font-style="normal" stroke-linejoin="bevel" font-size="34.375" font-weight="400" transform="matrix(0.999751,0,0,0.999751,0,0)"/>
  <g stroke="#000000" stroke-opacity="1" fill="none" stroke-width="1" stroke-linecap="square" font-family="MS Shell Dlg 2" font-style="normal" stroke-linejoin="bevel" font-size="34.375" font-weight="400" transform="matrix(0.999751,0,0,0.999751,0,0)"/>
  <g stroke="#000000" stroke-opacity="1" fill="none" stroke-width="1" stroke-linecap="square" font-family="MS Shell Dlg 2" font-style="normal" stroke-linejoin="bevel" font-size="34.375" font-weight="400" transform="matrix(0.999751,0,0,0.999751,0,0)"/>
  <g stroke="#000000" stroke-opacity="1" fill="none" stroke-width="1" stroke-linecap="square" font-family="MS Shell Dlg 2" font-style="normal" stroke-linejoin="bevel" font-size="34.375" font-weight="400" transform="matrix(0.999751,0,0,0.999751,0,0)"/>
  <g stroke="#000000" stroke-opacity="1" fill="none" stroke-width="1" stroke-linecap="square" font-family="MS Shell Dlg 2" font-style="normal" stroke-linejoin="bevel" font-size="34.375" font-weight="400" transform="matrix(0.999751,0,0,0.999751,0,0)"/>
  <g stroke="#000000" stroke-opacity="1" fill="none" stroke-width="1" stroke-linecap="square" font-family="MS Shell Dlg 2" font-style="normal" stroke-linejoin="bevel" font-size="34.375" font-weight="400" transform="matrix(0.999751,0,0,0.999751,0,0)"/>
  <g stroke="#000000" stroke-opacity="1" fill="none" stroke-width="1" stroke-linecap="square" font-family="MS Shell Dlg 2" font-style="normal" stroke-linejoin="bevel" font-size="34.375" font-weight="400" transform="matrix(0.999751,0,0,0.999751,0,0)"/>
  <g stroke="#000000" stroke-opacity="1" fill="none" stroke-width="1" stroke-linecap="square" font-family="MS Shell Dlg 2" font-style="normal" stroke-linejoin="bevel" font-size="34.375" font-weight="400" transform="matrix(0.31992,0,0,0.31992,1921.58,1375.07)"/>
  <g stroke="none" fill="#a80084" font-family="MS Shell Dlg 2" font-style="normal" font-size="34.375" fill-opacity="1" font-weight="400" transform="matrix(0.999751,0,0,0.999751,1921.58,1375.07)">
   <path d="M1.218,-10.092 C1.218,-11.2327 1.27117,-12.4168 1.3775,-13.6445 C1.48383,-14.8722 1.76417,-15.9983 2.2185,-17.023 C2.67283,-18.0477 3.35917,-18.8935 4.2775,-19.5605 C5.19583,-20.2275 6.45733,-20.561 8.062,-20.561 C9.66667,-20.561 10.9282,-20.2275 11.8465,-19.5605 C12.7648,-18.8935 13.4512,-18.0477 13.9055,-17.023 C14.3598,-15.9983 14.6402,-14.8722 14.7465,-13.6445 C14.8528,-12.4168 14.906,-11.2327 14.906,-10.092 C14.906,-9.338 14.8867,-8.555 14.848,-7.743 C14.8093,-6.931 14.7127,-6.13833 14.558,-5.365 C14.4033,-4.59167 14.181,-3.86183 13.891,-3.1755 C13.601,-2.48917 13.2047,-1.885 12.702,-1.363 C12.1993,-0.841 11.5662,-0.425333 10.8025,-0.116 C10.0388,0.193333 9.12533,0.348 8.062,0.348 C6.99867,0.348 6.08517,0.193333 5.3215,-0.116 C4.55783,-0.425333 3.92467,-0.841 3.422,-1.363 C2.91933,-1.885 2.523,-2.48917 2.233,-3.1755 C1.943,-3.86183 1.72067,-4.59167 1.566,-5.365 C1.41133,-6.13833 1.31467,-6.931 1.276,-7.743 C1.23733,-8.555 1.218,-9.338 1.218,-10.092 M3.828,-10.121 C3.828,-9.34767 3.85217,-8.4825 3.9005,-7.5255 C3.94883,-6.5685 4.1035,-5.6695 4.3645,-4.8285 C4.6255,-3.9875 5.046,-3.277 5.626,-2.697 C6.206,-2.117 7.018,-1.827 8.062,-1.827 C9.106,-1.827 9.918,-2.117 10.498,-2.697 C11.078,-3.277 11.4985,-3.9875 11.7595,-4.8285 C12.0205,-5.6695 12.1752,-6.5685 12.2235,-7.5255 C12.2718,-8.4825 12.296,-9.34767 12.296,-10.121 C12.296,-10.6237 12.2912,-11.1795 12.2815,-11.7885 C12.2718,-12.3975 12.2235,-13.0065 12.1365,-13.6155 C12.0495,-14.2245 11.9238,-14.819 11.7595,-15.399 C11.5952,-15.979 11.3535,-16.4865 11.0345,-16.9215 C10.7155,-17.3565 10.3143,-17.7093 9.831,-17.98 C9.34767,-18.2507 8.758,-18.386 8.062,-18.386 C7.366,-18.386 6.77633,-18.2507 6.293,-17.98 C5.80967,-17.7093 5.4085,-17.3565 5.0895,-16.9215 C4.7705,-16.4865 4.52883,-15.979 4.3645,-15.399 C4.20017,-14.819 4.0745,-14.2245 3.9875,-13.6155 C3.9005,-13.0065 3.85217,-12.3975 3.8425,-11.7885 C3.83283,-11.1795 3.828,-10.6237 3.828,-10.121 M18.407,-3.219 L21.626,-3.219 L21.626,0 L18.407,0 L18.407,-3.219 M27.77,-5.8 C27.77,-4.56267 28.1808,-3.59117 29.0025,-2.8855 C29.8242,-2.17983 30.873,-1.827 32.149,-1.827 C32.7677,-1.827 33.3332,-1.9285 33.8455,-2.1315 C34.3578,-2.3345 34.8025,-2.61483 35.1795,-2.9725 C35.5565,-3.33017 35.8465,-3.75067 36.0495,-4.234 C36.2525,-4.71733 36.354,-5.249 36.354,-5.829 C36.354,-6.38967 36.2428,-6.90683 36.0205,-7.3805 C35.7982,-7.85417 35.4937,-8.265 35.107,-8.613 C34.7203,-8.961 34.2708,-9.2365 33.7585,-9.4395 C33.2462,-9.6425 32.7,-9.744 32.12,-9.744 C31.5013,-9.744 30.931,-9.65217 30.409,-9.4685 C29.887,-9.28483 29.4278,-9.019 29.0315,-8.671 C28.6352,-8.323 28.3258,-7.90733 28.1035,-7.424 C27.8812,-6.94067 27.77,-6.39933 27.77,-5.8 M25.885,-15.312 C25.885,-16.1627 26.0493,-16.9118 26.378,-17.5595 C26.7067,-18.2072 27.1513,-18.7533 27.712,-19.198 C28.2727,-19.6427 28.9155,-19.981 29.6405,-20.213 C30.3655,-20.445 31.1243,-20.561 31.917,-20.561 C33.0383,-20.561 33.9953,-20.4112 34.788,-20.1115 C35.5807,-19.8118 36.2235,-19.4155 36.7165,-18.9225 C37.2095,-18.4295 37.572,-17.8688 37.804,-17.2405 C38.036,-16.6122 38.152,-15.9693 38.152,-15.312 C38.152,-14.384 37.891,-13.5382 37.369,-12.7745 C36.847,-12.0108 36.1607,-11.4357 35.31,-11.049 C36.5473,-10.6623 37.4657,-10.0292 38.065,-9.1495 C38.6643,-8.26983 38.964,-7.192 38.964,-5.916 C38.964,-4.93 38.7852,-4.0455 38.4275,-3.2625 C38.0698,-2.4795 37.5865,-1.82217 36.9775,-1.2905 C36.3685,-0.758833 35.6483,-0.352833 34.817,-0.0725 C33.9857,0.207833 33.0963,0.348 32.149,0.348 C31.163,0.348 30.2447,0.2175 29.394,-0.0435 C28.5433,-0.3045 27.8038,-0.696 27.1755,-1.218 C26.5472,-1.74 26.0542,-2.3925 25.6965,-3.1755 C25.3388,-3.9585 25.16,-4.872 25.16,-5.916 C25.16,-7.134 25.4693,-8.1925 26.088,-9.0915 C26.7067,-9.9905 27.596,-10.643 28.756,-11.049 C27.886,-11.397 27.19,-11.9625 26.668,-12.7455 C26.146,-13.5285 25.885,-14.384 25.885,-15.312 M28.495,-15.225 C28.495,-14.6643 28.5917,-14.1762 28.785,-13.7605 C28.9783,-13.3448 29.2393,-13.0017 29.568,-12.731 C29.8967,-12.4603 30.2833,-12.2573 30.728,-12.122 C31.1727,-11.9867 31.6463,-11.919 32.149,-11.919 C33.135,-11.919 33.947,-12.209 34.585,-12.789 C35.223,-13.369 35.542,-14.181 35.542,-15.225 C35.542,-16.269 35.2182,-17.0568 34.5705,-17.5885 C33.9228,-18.1202 33.0963,-18.386 32.091,-18.386 C31.5883,-18.386 31.1195,-18.3183 30.6845,-18.183 C30.2495,-18.0477 29.8725,-17.8447 29.5535,-17.574 C29.2345,-17.3033 28.9783,-16.9747 28.785,-16.588 C28.5917,-16.2013 28.495,-15.747 28.495,-15.225 " vector-effect="none" fill-rule="nonzero"/>
  </g>
  <g stroke="#000000" stroke-opacity="1" fill="none" stroke-width="1" stroke-linecap="square" font-family="MS Shell Dlg 2" font-style="normal" stroke-linejoin="bevel" font-size="34.375" font-weight="400" transform="matrix(0.31992,0,0,0.31992,1921.58,1375.07)"/>
  <g stroke="#000000" stroke-opacity="1" fill="none" stroke-width="1" stroke-linecap="square" font-family="MS Shell Dlg 2" font-style="normal" stroke-linejoin="bevel" font-size="34.375" font-weight="400" transform="matrix(0.999751,0,0,0.999751,0,0)"/>
  <g stroke="#000000" stroke-opacity="1" fill="none" stroke-width="1" stroke-linecap="square" font-family="MS Shell Dlg 2" font-style="normal" stroke-linejoin="bevel" font-size="34.375" font-weight="400" transform="matrix(0.31992,0,0,0.31992,1921.58,1409.06)"/>
  <g stroke="none" fill="#a80084" font-family="MS Shell Dlg 2" font-style="normal" font-size="34.375" fill-opacity="1" font-weight="400" transform="matrix(0.999751,0,0,0.999751,1921.58,1409.06)">
   <path d="" vector-effect="none" fill-rule="evenodd"/>
  </g>
  <g stroke="#000000" stroke-opacity="1" fill="none" stroke-width="1" stroke-linecap="square" font-family="MS Shell Dlg 2" font-style="normal" stroke-linejoin="bevel" font-size="34.375" font-weight="400" transform="matrix(0.31992,0,0,0.31992,1921.58,1409.06)"/>
  <g stroke="#000000" stroke-opacity="1" fill="none" stroke-width="1" stroke-linecap="square" font-family="MS Shell Dlg 2" font-style="normal" stroke-linejoin="bevel" font-size="34.375" font-weight="400" transform="matrix(0.999751,0,0,0.999751,0,0)"/>
  <g stroke="#000000" stroke-opacity="1" fill="none" stroke-width="1" stroke-linecap="square" font-family="MS Shell Dlg 2" font-style="normal" stroke-linejoin="bevel" font-size="34.375" font-weight="400" transform="matrix(0.31992,0,0,0.31992,1794.19,1141.28)"/>
  <g stroke="none" fill="#a80084" font-family="MS Shell Dlg 2" font-style="normal" font-size="34.375" fill-opacity="1" font-weight="400" transform="matrix(0.999751,0,0,0.999751,1794.19,1141.28)">
   <path d="M1.218,-10.092 C1.218,-11.2327 1.27117,-12.4168 1.3775,-13.6445 C1.48383,-14.8722 1.76417,-15.9983 2.2185,-17.023 C2.67283,-18.0477 3.35917,-18.8935 4.2775,-19.5605 C5.19583,-20.2275 6.45733,-20.561 8.062,-20.561 C9.66667,-20.561 10.9282,-20.2275 11.8465,-19.5605 C12.7648,-18.8935 13.4512,-18.0477 13.9055,-17.023 C14.3598,-15.9983 14.6402,-14.8722 14.7465,-13.6445 C14.8528,-12.4168 14.906,-11.2327 14.906,-10.092 C14.906,-9.338 14.8867,-8.555 14.848,-7.743 C14.8093,-6.931 14.7127,-6.13833 14.558,-5.365 C14.4033,-4.59167 14.181,-3.86183 13.891,-3.1755 C13.601,-2.48917 13.2047,-1.885 12.702,-1.363 C12.1993,-0.841 11.5662,-0.425333 10.8025,-0.116 C10.0388,0.193333 9.12533,0.348 8.062,0.348 C6.99867,0.348 6.08517,0.193333 5.3215,-0.116 C4.55783,-0.425333 3.92467,-0.841 3.422,-1.363 C2.91933,-1.885 2.523,-2.48917 2.233,-3.1755 C1.943,-3.86183 1.72067,-4.59167 1.566,-5.365 C1.41133,-6.13833 1.31467,-6.931 1.276,-7.743 C1.23733,-8.555 1.218,-9.338 1.218,-10.092 M3.828,-10.121 C3.828,-9.34767 3.85217,-8.4825 3.9005,-7.5255 C3.94883,-6.5685 4.1035,-5.6695 4.3645,-4.8285 C4.6255,-3.9875 5.046,-3.277 5.626,-2.697 C6.206,-2.117 7.018,-1.827 8.062,-1.827 C9.106,-1.827 9.918,-2.117 10.498,-2.697 C11.078,-3.277 11.4985,-3.9875 11.7595,-4.8285 C12.0205,-5.6695 12.1752,-6.5685 12.2235,-7.5255 C12.2718,-8.4825 12.296,-9.34767 12.296,-10.121 C12.296,-10.6237 12.2912,-11.1795 12.2815,-11.7885 C12.2718,-12.3975 12.2235,-13.0065 12.1365,-13.6155 C12.0495,-14.2245 11.9238,-14.819 11.7595,-15.399 C11.5952,-15.979 11.3535,-16.4865 11.0345,-16.9215 C10.7155,-17.3565 10.3143,-17.7093 9.831,-17.98 C9.34767,-18.2507 8.758,-18.386 8.062,-18.386 C7.366,-18.386 6.77633,-18.2507 6.293,-17.98 C5.80967,-17.7093 5.4085,-17.3565 5.0895,-16.9215 C4.7705,-16.4865 4.52883,-15.979 4.3645,-15.399 C4.20017,-14.819 4.0745,-14.2245 3.9875,-13.6155 C3.9005,-13.0065 3.85217,-12.3975 3.8425,-11.7885 C3.83283,-11.1795 3.828,-10.6237 3.828,-10.121 M18.407,-3.219 L21.626,-3.219 L21.626,0 L18.407,0 L18.407,-3.219 M27.77,-5.8 C27.77,-4.56267 28.1808,-3.59117 29.0025,-2.8855 C29.8242,-2.17983 30.873,-1.827 32.149,-1.827 C32.7677,-1.827 33.3332,-1.9285 33.8455,-2.1315 C34.3578,-2.3345 34.8025,-2.61483 35.1795,-2.9725 C35.5565,-3.33017 35.8465,-3.75067 36.0495,-4.234 C36.2525,-4.71733 36.354,-5.249 36.354,-5.829 C36.354,-6.38967 36.2428,-6.90683 36.0205,-7.3805 C35.7982,-7.85417 35.4937,-8.265 35.107,-8.613 C34.7203,-8.961 34.2708,-9.2365 33.7585,-9.4395 C33.2462,-9.6425 32.7,-9.744 32.12,-9.744 C31.5013,-9.744 30.931,-9.65217 30.409,-9.4685 C29.887,-9.28483 29.4278,-9.019 29.0315,-8.671 C28.6352,-8.323 28.3258,-7.90733 28.1035,-7.424 C27.8812,-6.94067 27.77,-6.39933 27.77,-5.8 M25.885,-15.312 C25.885,-16.1627 26.0493,-16.9118 26.378,-17.5595 C26.7067,-18.2072 27.1513,-18.7533 27.712,-19.198 C28.2727,-19.6427 28.9155,-19.981 29.6405,-20.213 C30.3655,-20.445 31.1243,-20.561 31.917,-20.561 C33.0383,-20.561 33.9953,-20.4112 34.788,-20.1115 C35.5807,-19.8118 36.2235,-19.4155 36.7165,-18.9225 C37.2095,-18.4295 37.572,-17.8688 37.804,-17.2405 C38.036,-16.6122 38.152,-15.9693 38.152,-15.312 C38.152,-14.384 37.891,-13.5382 37.369,-12.7745 C36.847,-12.0108 36.1607,-11.4357 35.31,-11.049 C36.5473,-10.6623 37.4657,-10.0292 38.065,-9.1495 C38.6643,-8.26983 38.964,-7.192 38.964,-5.916 C38.964,-4.93 38.7852,-4.0455 38.4275,-3.2625 C38.0698,-2.4795 37.5865,-1.82217 36.9775,-1.2905 C36.3685,-0.758833 35.6483,-0.352833 34.817,-0.0725 C33.9857,0.207833 33.0963,0.348 32.149,0.348 C31.163,0.348 30.2447,0.2175 29.394,-0.0435 C28.5433,-0.3045 27.8038,-0.696 27.1755,-1.218 C26.5472,-1.74 26.0542,-2.3925 25.6965,-3.1755 C25.3388,-3.9585 25.16,-4.872 25.16,-5.916 C25.16,-7.134 25.4693,-8.1925 26.088,-9.0915 C26.7067,-9.9905 27.596,-10.643 28.756,-11.049 C27.886,-11.397 27.19,-11.9625 26.668,-12.7455 C26.146,-13.5285 25.885,-14.384 25.885,-15.312 M28.495,-15.225 C28.495,-14.6643 28.5917,-14.1762 28.785,-13.7605 C28.9783,-13.3448 29.2393,-13.0017 29.568,-12.731 C29.8967,-12.4603 30.2833,-12.2573 30.728,-12.122 C31.1727,-11.9867 31.6463,-11.919 32.149,-11.919 C33.135,-11.919 33.947,-12.209 34.585,-12.789 C35.223,-13.369 35.542,-14.181 35.542,-15.225 C35.542,-16.269 35.2182,-17.0568 34.5705,-17.5885 C33.9228,-18.1202 33.0963,-18.386 32.091,-18.386 C31.5883,-18.386 31.1195,-18.3183 30.6845,-18.183 C30.2495,-18.0477 29.8725,-17.8447 29.5535,-17.574 C29.2345,-17.3033 28.9783,-16.9747 28.785,-16.588 C28.5917,-16.2013 28.495,-15.747 28.495,-15.225 " vector-effect="none" fill-rule="nonzero"/>
  </g>
  <g stroke="#000000" stroke-opacity="1" fill="none" stroke-width="1" stroke-linecap="square" font-family="MS Shell Dlg 2" font-style="normal" stroke-linejoin="bevel" font-size="34.375" font-weight="400" transform="matrix(0.31992,0,0,0.31992,1794.19,1141.28)"/>
  <g stroke="#000000" stroke-opacity="1" fill="none" stroke-width="1" stroke-linecap="square" font-family="MS Shell Dlg 2" font-style="normal" stroke-linejoin="bevel" font-size="34.375" font-weight="400" transform="matrix(0.999751,0,0,0.999751,0,0)"/>
  <g stroke="#000000" stroke-opacity="1" fill="none" stroke-width="1" stroke-linecap="square" font-family="MS Shell Dlg 2" font-style="normal" stroke-linejoin="bevel" font-size="34.375" font-weight="400" transform="matrix(0.31992,0,0,0.31992,1794.19,1175.27)"/>
  <g stroke="none" fill="#a80084" font-family="MS Shell Dlg 2" font-style="normal" font-size="34.375" fill-opacity="1" font-weight="400" transform="matrix(0.999751,0,0,0.999751,1794.19,1175.27)">
   <path d="" vector-effect="none" fill-rule="evenodd"/>
  </g>
  <g stroke="#000000" stroke-opacity="1" fill="none" stroke-width="1" stroke-linecap="square" font-family="MS Shell Dlg 2" font-style="normal" stroke-linejoin="bevel" font-size="34.375" font-weight="400" transform="matrix(0.31992,0,0,0.31992,1794.19,1175.27)"/>
  <g stroke="#000000" stroke-opacity="1" fill="none" stroke-width="1" stroke-linecap="square" font-family="MS Shell Dlg 2" font-style="normal" stroke-linejoin="bevel" font-size="34.375" font-weight="400" transform="matrix(0.999751,0,0,0.999751,0,0)"/>
  <g stroke="#000000" stroke-opacity="1" fill="none" stroke-width="1" stroke-linecap="square" font-family="MS Shell Dlg 2" font-style="normal" stroke-linejoin="bevel" font-size="34.375" font-weight="400" transform="matrix(11.8081,0,0,11.8081,0,0)"/>
  <g stroke="#000000" stroke-opacity="1" fill="none" stroke-width="1" stroke-linecap="square" font-family="MS Shell Dlg 2" font-style="normal" stroke-linejoin="bevel" font-size="34.375" font-weight="400" transform="matrix(11.8081,0,0,11.8081,0,0)"/>
  <g stroke="#000000" stroke-opacity="1" fill="none" stroke-width="1" stroke-linecap="square" font-family="MS Shell Dlg 2" font-style="normal" stroke-linejoin="bevel" font-size="34.375" font-weight="400" transform="matrix(11.8081,0,0,11.8081,0,0)"/>
  <g stroke="#000000" stroke-opacity="1" fill="none" stroke-width="1" stroke-linecap="square" font-family="MS Shell Dlg 2" font-style="normal" stroke-linejoin="bevel" font-size="34.375" font-weight="400" transform="matrix(1,0,0,1,0,0)"/>
  <g stroke="#000000" stroke-opacity="1" fill="none" stroke-width="1" stroke-linecap="square" font-family="MS Shell Dlg 2" font-style="normal" stroke-linejoin="bevel" font-size="34.375" font-weight="400" transform="matrix(11.8081,0,0,11.8081,0,0)"/>
  <g stroke="#000000" stroke-opacity="1" fill="none" stroke-width="1" stroke-linecap="square" font-family="MS Shell Dlg 2" font-style="normal" stroke-linejoin="bevel" font-size="34.375" font-weight="400" transform="matrix(11.8081,0,0,11.8081,0,0)"/>
  <g stroke="#000000" stroke-opacity="1" fill="none" stroke-width="1" stroke-linecap="square" font-family="MS Shell Dlg 2" font-style="normal" stroke-linejoin="bevel" font-size="34.375" font-weight="400" transform="matrix(11.8081,0,0,11.8081,0,0)"/>
  <g stroke="#000000" stroke-opacity="1" fill="none" stroke-width="1" stroke-linecap="square" font-family="MS Shell Dlg 2" font-style="normal" stroke-linejoin="bevel" font-size="34.375" font-weight="400" transform="matrix(11.8081,0,0,11.8081,0,0)"/>
  <g stroke="#000000" stroke-opacity="1" fill="none" stroke-width="1" stroke-linecap="square" font-family="MS Shell Dlg 2" font-style="normal" stroke-linejoin="bevel" font-size="34.375" font-weight="400" transform="matrix(1,0,0,1,0,0)"/>
 </g>
</svg>
